<svg width="253" height="71" viewBox="0 0 253 71" fill="none" xmlns="http://www.w3.org/2000/svg">
<g clip-path="url(#clip0_66_56)">
<rect width="253" height="71" fill="white"/>
<path d="M7.96074 32.0573H56.0407C56.7039 32.0556 57.3394 31.7915 57.8083 31.3225C58.2773 30.8536 58.5415 30.2181 58.5431 29.5549L58.5406 11.0717C58.5389 10.4086 58.2747 9.77306 57.8058 9.30414C57.3369 8.83521 56.7013 8.57103 56.0382 8.56934H7.96202C7.29875 8.57086 6.66308 8.83497 6.19401 9.30391C5.72495 9.77286 5.46067 10.4085 5.45898 11.0717V29.5549C5.45966 30.2184 5.72352 30.8545 6.19267 31.3237C6.66181 31.7928 7.29791 32.0567 7.96138 32.0573H7.96074ZM53.7809 31.1249H10.2212V28.6525C10.2212 27.9722 10.7735 27.4199 11.4539 27.4199H52.538C53.2177 27.4199 53.7707 27.9722 53.7707 28.6525V31.1249H53.7809ZM56.0407 31.1249H54.714V28.6525C54.7132 28.0765 54.484 27.5244 54.0767 27.1171C53.6694 26.7098 53.1172 26.4806 52.5412 26.4797H11.4635C10.8875 26.4806 10.3353 26.7098 9.928 27.1171C9.5207 27.5244 9.29151 28.0765 9.29066 28.6525V31.1249H7.96074C7.54484 31.1233 7.14641 30.9575 6.85232 30.6634C6.55823 30.3693 6.39234 29.9708 6.39082 29.5549V18.4727C7.99082 18.4727 9.6305 18.0753 11.258 17.3002C11.3758 17.2426 11.491 17.1927 11.6183 17.1453C12.3083 16.8659 13.0461 16.7239 13.7905 16.7274H50.0484C50.9214 16.7274 51.7937 16.9226 52.5687 17.3002C54.2161 18.0855 55.866 18.4829 57.4558 18.4829H57.6004V29.5652C57.6107 30.4177 56.9028 31.1249 56.0407 31.1249ZM7.96074 9.50246H56.0388C56.4547 9.50397 56.8532 9.66986 57.1473 9.96395C57.4413 10.258 57.6072 10.6565 57.6087 11.0724V17.5396H57.4641C56.0087 17.5396 54.4964 17.1722 52.9739 16.4452C52.0627 16.0082 51.0647 15.7824 50.0542 15.7847H13.7918C12.9243 15.7828 12.0648 15.9509 11.2619 16.2794L10.8542 16.4548C9.35146 17.1722 7.85642 17.5319 6.39402 17.5396L6.39082 11.0724C6.39234 10.6565 6.55823 10.258 6.85232 9.96395C7.14641 9.66986 7.54484 9.50397 7.96074 9.50246Z" fill="#297CE2"/>
<path d="M20.1201 20.3049H17.7623C17.3175 20.3049 16.9099 20.4797 16.6001 20.7901C16.2903 21.1005 16.115 21.5177 16.115 21.9523C16.1147 22.1687 16.1572 22.383 16.2399 22.583C16.3226 22.783 16.4439 22.9647 16.5969 23.1177C16.7499 23.2707 16.9316 23.3921 17.1316 23.4748C17.3316 23.5575 17.5459 23.5999 17.7623 23.5997H20.1201C20.5649 23.5997 20.9726 23.4249 21.2823 23.1152C21.5132 22.8853 21.6705 22.5921 21.7345 22.2727C21.7984 21.9533 21.7661 21.6221 21.6416 21.3211C21.5171 21.0201 21.3061 20.7629 21.0352 20.5819C20.7643 20.401 20.4458 20.3046 20.1201 20.3049ZM20.6257 22.4573C20.5593 22.5232 20.4804 22.5752 20.3935 22.61C20.3067 22.6449 20.2137 22.6619 20.1201 22.6601H17.7623C17.3655 22.6601 17.0551 22.3401 17.0551 21.9523C17.0551 21.7577 17.1326 21.5849 17.2574 21.4473C17.3924 21.3129 17.5678 21.2451 17.763 21.2451H20.1201C20.5175 21.2451 20.8273 21.5651 20.8273 21.9523C20.8299 22.1379 20.7601 22.3197 20.6251 22.4579L20.6257 22.4573ZM13.2945 20.3049H10.9367C10.7205 20.3044 10.5063 20.3471 10.3067 20.4304C10.1072 20.5137 9.92623 20.636 9.77451 20.7901C9.54393 21.0199 9.38676 21.3131 9.32292 21.6324C9.25909 21.9517 9.29145 22.2827 9.41591 22.5836C9.54038 22.8845 9.75134 23.1416 10.0221 23.3225C10.2928 23.5034 10.6111 23.5998 10.9367 23.5997H13.2945C13.7393 23.5997 14.147 23.4249 14.4567 23.1152C14.6876 22.8853 14.8449 22.5921 14.9089 22.2727C14.9728 21.9533 14.9405 21.6221 14.816 21.3211C14.6915 21.0201 14.4805 20.7629 14.2096 20.5819C13.9387 20.401 13.6202 20.3046 13.2945 20.3049ZM13.8001 22.4573C13.7337 22.5232 13.6548 22.5752 13.5679 22.61C13.4811 22.6449 13.3881 22.6619 13.2945 22.6601H10.9367C10.5399 22.6601 10.2295 22.3401 10.2295 21.9523C10.2295 21.7577 10.307 21.5849 10.4318 21.4473C10.5668 21.3129 10.7422 21.2451 10.9374 21.2451H13.2945C13.6919 21.2451 14.0017 21.5651 14.0017 21.9523C14.0119 22.1379 13.9345 22.3197 13.7995 22.4579L13.8001 22.4573ZM4.70251 68.4976H2.03755C1.9764 68.4974 1.91582 68.5093 1.85929 68.5326C1.80277 68.556 1.75141 68.5902 1.70817 68.6335C1.66493 68.6767 1.63066 68.7281 1.60734 68.7846C1.58402 68.8411 1.5721 68.9017 1.57227 68.9629C1.57227 69.215 1.78475 69.4275 2.03755 69.4275H4.71467C4.97707 69.4275 5.17995 69.215 5.17995 68.9629C5.17661 68.8384 5.12486 68.7202 5.0357 68.6333C4.94654 68.5464 4.827 68.4977 4.70251 68.4976ZM60.5195 68.4976H56.7191C57.2525 67.942 57.5516 67.2025 57.5543 66.4323V56.7856C57.5544 56.7245 57.5425 56.6641 57.5191 56.6077C57.4958 56.5513 57.4616 56.5 57.4184 56.4568C57.3753 56.4137 57.324 56.3795 57.2676 56.3561C57.2112 56.3328 57.1507 56.3209 57.0897 56.3209C57.0286 56.3208 56.9681 56.3327 56.9116 56.3559C56.8551 56.3792 56.8038 56.4134 56.7606 56.4566C56.7173 56.4998 56.683 56.5511 56.6597 56.6075C56.6363 56.664 56.6243 56.7245 56.6244 56.7856V63H38.8996L38.8945 46.1277H56.6193V52.808C56.6193 52.9313 56.6683 53.0496 56.7555 53.1368C56.8427 53.224 56.961 53.2729 57.0843 53.2729C57.2076 53.2729 57.3258 53.224 57.413 53.1368C57.5002 53.0496 57.5492 52.9313 57.5492 52.808L57.5518 42.696C57.5511 41.8992 57.2343 41.1352 56.671 40.5718C56.1076 40.0083 55.3438 39.6914 54.547 39.6905L40.9495 39.688C40.1529 39.6888 39.3891 40.0057 38.8258 40.569C38.2624 41.1323 37.9456 41.8961 37.9447 42.6928V66.4201C37.9447 67.2253 38.2647 67.9529 38.7793 68.4854L20.0343 68.488C20.0919 68.4406 20.1521 68.3907 20.2097 68.3331C20.5586 67.9885 20.8351 67.5777 21.023 67.1248C21.211 66.6719 21.3065 66.186 21.3041 65.6957C21.3041 65.6752 21.2945 65.6553 21.2945 65.6381V65.5907L20.6449 62.6032H24.0868C24.1745 63.0576 24.3972 63.4755 24.7371 63.8153C24.9572 64.0361 25.2186 64.2113 25.5064 64.331C25.7942 64.4507 26.1028 64.5125 26.4145 64.5129C27.0441 64.5119 27.6476 64.2614 28.0928 63.8162C28.538 63.371 28.7885 62.7675 28.7895 62.1379C28.7885 61.5084 28.5381 60.905 28.093 60.4598C27.648 60.0147 27.0446 59.764 26.4151 59.7629C25.866 59.7625 25.3337 59.9527 24.9092 60.301C24.4846 60.6492 24.1939 61.134 24.0868 61.6726H20.442L20.0343 59.8102C19.9659 59.5059 19.7965 59.2338 19.5535 59.0382C19.3106 58.8426 19.0086 58.7351 18.6967 58.7331H14.4023C14.6496 58.1305 14.9214 57.5382 15.2171 56.9577C15.6721 57.0153 16.1297 57.0557 16.5847 57.0557C18.5047 57.0557 20.3473 56.5232 21.8993 55.503C21.9646 55.4615 22.0183 55.4042 22.0556 55.3364C22.0928 55.2686 22.1124 55.1925 22.1124 55.1152V53.9907L22.8292 54.3683C23.0148 54.4656 23.2369 54.4259 23.3822 54.2806C24.3723 53.263 25.0795 52.0406 25.4871 50.6531C25.5106 50.578 25.514 50.498 25.4969 50.4212C25.4799 50.3444 25.4429 50.2734 25.3899 50.2153L24.5943 49.3027H25.3694C25.6126 49.3027 25.8148 49.1177 25.8347 48.8854C25.9998 47.2957 25.8046 45.5779 25.2823 43.7757C25.2548 43.6818 25.199 43.5987 25.1225 43.5378C25.046 43.4768 24.9525 43.441 24.8548 43.4352C22.6148 43.3481 20.6545 43.6579 19.0174 44.3651C18.9338 44.4009 18.8627 44.4606 18.8128 44.5366C18.763 44.6127 18.7366 44.7017 18.7371 44.7926V45.5504L17.9019 45.1901C17.8286 45.1575 17.748 45.1448 17.6682 45.1532C17.5885 45.1616 17.5123 45.1909 17.4475 45.2381C16.0324 46.2281 15.0219 47.5856 14.4497 49.263C14.4221 49.3468 14.4185 49.4366 14.4392 49.5223C14.4599 49.608 14.5041 49.6862 14.5668 49.7481L15.0219 50.2025L14.5444 50.2102C14.4362 50.2092 14.3312 50.2466 14.248 50.3157C14.1648 50.3848 14.1088 50.4813 14.09 50.5878C13.7598 52.3529 13.8769 54.3504 14.4395 56.3952C13.907 57.4429 13.5569 58.296 13.3924 58.7427H13.1198C12.843 58.018 12.5257 57.3095 12.1694 56.6205C12.6846 54.7401 12.7902 52.8976 12.4894 51.2777C12.4702 51.1714 12.4142 51.0752 12.331 51.0061C12.2479 50.937 12.1431 50.8995 12.035 50.9001H11.7047L12.0644 50.5405C12.1252 50.4772 12.1681 50.399 12.1888 50.3138C12.2095 50.2286 12.2072 50.1394 12.1822 50.0553C11.6593 48.5027 10.7268 47.2528 9.41931 46.3401C9.35278 46.2967 9.27686 46.2697 9.19783 46.2615C9.11881 46.2533 9.03896 46.264 8.96491 46.2928L8.24683 46.6025L8.24235 45.983C8.24364 45.8919 8.21764 45.8025 8.16768 45.7263C8.11772 45.6501 8.04609 45.5906 7.96203 45.5555C6.45931 44.9053 4.64427 44.6147 2.58987 44.703C2.49163 44.7065 2.39709 44.7414 2.32014 44.8025C2.24319 44.8637 2.18789 44.9479 2.16235 45.0429C1.67723 46.7005 1.50187 48.2902 1.64715 49.7456C1.65877 49.8605 1.71283 49.9669 1.79876 50.0441C1.88468 50.1213 1.9963 50.1636 2.11179 50.1629L2.71467 50.1603L2.03435 50.9353C1.98166 50.9937 1.94499 51.0647 1.92794 51.1414C1.91089 51.2181 1.91404 51.2979 1.93707 51.3731C2.31467 52.6627 2.96491 53.7878 3.88715 54.7177C4.03243 54.863 4.25451 54.9033 4.43947 54.8054L5.72971 54.1181C5.78466 54.0903 5.83346 54.0517 5.87321 54.0047C5.91295 53.9576 5.94281 53.9031 5.96103 53.8443C5.97924 53.7854 5.98543 53.7236 5.97923 53.6623C5.97302 53.601 5.95455 53.5416 5.92491 53.4877C5.89687 53.4329 5.85816 53.3844 5.81107 53.3449C5.76398 53.3053 5.70946 53.2756 5.65071 53.2575C5.59197 53.2394 5.53019 53.2332 5.46901 53.2393C5.40784 53.2454 5.3485 53.2637 5.29451 53.2931L4.32491 53.8077C3.68491 53.1101 3.21963 52.2851 2.90987 51.3552L4.09195 49.9984C4.15278 49.9329 4.19265 49.8508 4.20645 49.7625C4.22025 49.6743 4.20734 49.5839 4.16939 49.503C4.13148 49.4216 4.07111 49.3527 3.99538 49.3044C3.91964 49.2561 3.83169 49.2304 3.74187 49.2304H2.51947C2.46187 48.1053 2.59691 46.8931 2.93739 45.6329C4.58475 45.6029 6.04971 45.8281 7.28235 46.303V47.3398C7.28235 47.4953 7.35915 47.6406 7.49483 47.7277C7.62923 47.8153 7.79499 47.8256 7.93963 47.768L9.06475 47.2829C10.0247 48.0105 10.7319 48.9603 11.1697 50.1053L10.2295 51.0461C10.1634 51.1121 10.1187 51.1965 10.1014 51.2883C10.084 51.3801 10.0948 51.475 10.1323 51.5606C10.1675 51.6473 10.2281 51.7213 10.3061 51.773C10.3841 51.8248 10.4758 51.8518 10.5694 51.8505H11.6369C11.7924 52.9449 11.7444 54.1577 11.5025 55.4102C11.2205 54.9326 10.9195 54.4665 10.6001 54.0131L10.9777 53.1299C11.0018 53.0734 11.0144 53.0126 11.0147 52.9512C11.015 52.8897 11.003 52.8288 10.9794 52.7721C10.9559 52.7153 10.9213 52.6639 10.8775 52.6207C10.8338 52.5775 10.7819 52.5435 10.7249 52.5206C10.6684 52.4963 10.6075 52.4835 10.546 52.4831C10.4844 52.4827 10.4234 52.4945 10.3665 52.518C10.3096 52.5415 10.258 52.5762 10.2147 52.6199C10.1714 52.6637 10.1373 52.7156 10.1143 52.7728L9.94987 53.1504C9.58154 52.6855 9.18665 52.2423 8.76715 51.823L9.28235 50.3779C9.32406 50.2612 9.31801 50.1327 9.26552 50.0204C9.21303 49.9081 9.11834 49.8211 9.00203 49.7782C8.88538 49.7365 8.75698 49.7424 8.6447 49.7948C8.53242 49.8472 8.44533 49.9417 8.40235 50.0579L8.02475 51.1254C7.77133 50.9084 7.50936 50.7015 7.23947 50.5053C7.19027 50.4683 7.13409 50.4416 7.0743 50.427C7.01452 50.4123 6.95238 50.4099 6.89166 50.42C6.83093 50.43 6.77287 50.4523 6.721 50.4855C6.66913 50.5186 6.62452 50.5619 6.58987 50.6128C6.55277 50.662 6.52605 50.7182 6.51134 50.7781C6.49662 50.8379 6.49422 50.9001 6.50428 50.9609C6.51433 51.0217 6.53663 51.0799 6.56983 51.1318C6.60302 51.1837 6.64642 51.2284 6.69739 51.263C6.92971 51.4281 7.15179 51.6029 7.36683 51.7853L6.57195 52.1053C6.5144 52.1278 6.4619 52.1616 6.4175 52.2046C6.37309 52.2476 6.33766 52.299 6.31325 52.3557C6.28885 52.4125 6.27595 52.4736 6.27532 52.5354C6.27468 52.5972 6.28631 52.6585 6.30955 52.7158C6.34543 52.8022 6.40624 52.8759 6.48421 52.9275C6.56219 52.9792 6.65379 53.0064 6.74731 53.0057C6.80797 53.0068 6.86796 52.9929 6.92203 52.9654L8.12459 52.4803C8.57272 52.9304 8.99029 53.41 9.37451 53.9158L8.72683 54.2358C8.61557 54.2889 8.52979 54.3838 8.48819 54.4998C8.44659 54.6159 8.45254 54.7437 8.50475 54.8553C8.54375 54.9359 8.60438 55.0041 8.67987 55.0522C8.75536 55.1004 8.84274 55.1266 8.93227 55.128C8.99947 55.128 9.06667 55.1177 9.13451 55.0806L9.93963 54.703C10.2955 55.22 10.6259 55.7539 10.9297 56.303C9.06731 56.4681 7.25483 56.0406 5.76939 55.0704C5.55691 54.9257 5.26443 54.9936 5.11979 55.2054C4.97451 55.4179 5.04235 55.711 5.25419 55.8557C6.68971 56.7958 8.38699 57.2803 10.1623 57.2803C10.5694 57.2803 10.9873 57.2502 11.395 57.1933C11.715 57.823 11.9473 58.3657 12.1022 58.7453L9.42443 58.7433C8.78443 58.7433 8.23211 59.1805 8.08683 59.8205L6.82731 65.6105V65.6579C6.82731 65.6777 6.81707 65.688 6.81707 65.7053C6.81707 66.8208 7.31243 67.8109 8.07723 68.4982H6.38955C6.32851 68.4981 6.26805 68.5101 6.21164 68.5334C6.15523 68.5567 6.10397 68.591 6.06081 68.6341C6.01765 68.6773 5.98342 68.7285 5.9601 68.785C5.93678 68.8414 5.92482 68.9018 5.92491 68.9629C5.92491 69.2157 6.13739 69.4281 6.38955 69.4281H60.5092C60.6297 69.4252 60.7444 69.3756 60.8291 69.2898C60.9137 69.204 60.9618 69.0887 60.9631 68.9681C60.9644 68.8476 60.9189 68.7312 60.8362 68.6436C60.7534 68.5559 60.6399 68.5038 60.5195 68.4982V68.4976ZM26.4043 60.7126C26.7846 60.7135 27.149 60.8649 27.4179 61.1338C27.6869 61.4027 27.8383 61.7672 27.8391 62.1475C27.8383 62.5278 27.6869 62.8923 27.4179 63.1612C27.149 63.4301 26.7846 63.5815 26.4043 63.5824C26.2154 63.5843 26.028 63.5484 25.8532 63.4767C25.6785 63.405 25.5198 63.2991 25.3867 63.1651C25.2529 63.0318 25.1471 62.8731 25.0754 62.6984C25.0038 62.5236 24.9677 62.3363 24.9694 62.1475C24.9591 61.3603 25.6094 60.7126 26.4043 60.7126ZM14.9419 51.1504H16.1342C16.2274 51.1499 16.3185 51.1222 16.3963 51.0707C16.474 51.0192 16.5351 50.9461 16.5719 50.8605C16.6052 50.774 16.6137 50.68 16.5965 50.589C16.5793 50.498 16.5371 50.4136 16.4747 50.3453L15.427 49.2976C15.9121 48.0176 16.6967 46.9705 17.7643 46.1654L19.0142 46.7081C19.1595 46.7657 19.3246 46.7555 19.4596 46.6678C19.5947 46.5801 19.6721 46.4355 19.6721 46.2806V45.1248C21.0391 44.5923 22.6494 44.3395 24.4721 44.3773C24.8497 45.7821 25.0046 47.1325 24.9367 48.3824H23.5595C23.4691 48.3816 23.3804 48.4072 23.3043 48.456C23.2282 48.5047 23.1679 48.5746 23.1308 48.657C23.0937 48.7394 23.0814 48.8309 23.0954 48.9202C23.1093 49.0095 23.1489 49.0928 23.2094 49.16L24.5195 50.6525C24.1902 51.6656 23.6558 52.6 22.9495 53.3974L21.8641 52.815C21.7918 52.7784 21.7116 52.7601 21.6306 52.7618C21.5496 52.7635 21.4702 52.785 21.3995 52.8246C21.3319 52.8668 21.2761 52.9253 21.2372 52.9948C21.1982 53.0643 21.1775 53.1424 21.1767 53.2221V54.8624C19.587 55.8422 17.667 56.2595 15.6894 56.0745C16.0405 55.4386 16.4228 54.8205 16.835 54.2224L18.1719 54.7549C18.2295 54.7747 18.2897 54.7945 18.3467 54.7945C18.4401 54.7948 18.5315 54.7674 18.6094 54.7158C18.6873 54.6642 18.7482 54.5907 18.7844 54.5046C18.8077 54.4474 18.8194 54.3861 18.8188 54.3243C18.8182 54.2625 18.8053 54.2015 18.7809 54.1447C18.7565 54.088 18.721 54.0366 18.6766 53.9937C18.6321 53.9508 18.5796 53.9171 18.522 53.8947L17.4071 53.4499C17.8411 52.8864 18.3076 52.3487 18.8043 51.8397L20.1419 52.3721C20.1995 52.392 20.2596 52.4125 20.3166 52.4125C20.41 52.4127 20.5014 52.3853 20.5793 52.3337C20.6572 52.2821 20.7181 52.2087 20.7543 52.1225C20.7778 52.0653 20.7895 52.0039 20.789 51.9421C20.7884 51.8802 20.7756 51.8191 20.7511 51.7622C20.7267 51.7054 20.6912 51.654 20.6467 51.611C20.6022 51.5681 20.5496 51.5344 20.4919 51.512L19.562 51.1446C19.8142 50.9321 20.0766 50.7171 20.3467 50.5245C20.397 50.4894 20.4399 50.4446 20.4727 50.3927C20.5054 50.3408 20.5275 50.2829 20.5375 50.2223C20.5475 50.1618 20.5453 50.0999 20.531 50.0402C20.5167 49.9805 20.4906 49.9243 20.4542 49.8749C20.4191 49.8245 20.3743 49.7817 20.3224 49.7489C20.2706 49.7161 20.2126 49.694 20.1521 49.684C20.0915 49.674 20.0296 49.6762 19.9699 49.6905C19.9102 49.7048 19.854 49.7309 19.8046 49.7673C19.4931 49.9928 19.192 50.2322 18.9022 50.4848L18.4644 49.2624C18.4216 49.1459 18.3344 49.0511 18.222 48.9986C18.1095 48.9461 17.9809 48.9401 17.8641 48.9821C17.7478 49.025 17.6531 49.1122 17.6007 49.2247C17.5483 49.3371 17.5425 49.4657 17.5844 49.5824L18.147 51.1824C17.6817 51.647 17.2446 52.1424 16.8471 52.6473L16.4843 51.6445C16.4413 51.5283 16.3542 51.4337 16.2419 51.3814C16.1296 51.329 16.0012 51.323 15.8846 51.3648C15.7683 51.4076 15.6736 51.4947 15.6211 51.607C15.5686 51.7193 15.5626 51.8477 15.6043 51.9645L16.1675 53.535C15.7908 54.0683 15.4378 54.618 15.1095 55.1824C14.8171 53.7597 14.7595 52.3926 14.9419 51.1504ZM8.99947 60.0227C9.02123 59.9258 9.07551 59.8392 9.15328 59.7774C9.23106 59.7155 9.32764 59.6822 9.42699 59.6829H18.6871C18.785 59.6834 18.8798 59.7173 18.9557 59.7792C19.0316 59.841 19.0841 59.9269 19.1044 60.0227L20.25 65.24H7.86347L8.99947 60.0227ZM10.5393 68.4976C9.88105 68.4963 9.24425 68.2633 8.7405 67.8396C8.23675 67.4159 7.89817 66.8284 7.78411 66.1801H20.3115C20.2139 66.7509 19.9394 67.2766 19.5268 67.6829C19.2688 67.9419 18.9621 68.1472 18.6243 68.287C18.2865 68.4269 17.9244 68.4984 17.5588 68.4976H10.5393ZM40.9495 40.6301H54.5348C54.806 40.6301 55.0746 40.6835 55.3252 40.7873C55.5757 40.8911 55.8034 41.0432 55.9952 41.235C56.187 41.4267 56.3391 41.6544 56.4429 41.905C56.5467 42.1556 56.6001 42.4241 56.6001 42.6953V45.1875H38.8753V42.6953C38.8849 41.56 39.8142 40.6301 40.9495 40.6301ZM40.9495 68.4976C40.4018 68.4976 39.8765 68.28 39.4892 67.8927C39.1019 67.5054 38.8843 66.98 38.8843 66.4323V63.9408H56.6091V66.4329C56.6091 66.9806 56.3916 67.5058 56.0044 67.8931C55.6172 68.2804 55.0921 68.4981 54.5444 68.4982L40.9495 68.4976ZM61.962 68.4976H61.7495C61.6884 68.4974 61.6278 68.5093 61.5713 68.5326C61.5148 68.556 61.4634 68.5902 61.4202 68.6335C61.3769 68.6767 61.3427 68.7281 61.3193 68.7846C61.296 68.8411 61.2841 68.9017 61.2843 68.9629C61.2843 69.215 61.4967 69.4275 61.7495 69.4275H61.962C62.0853 69.4275 62.2036 69.3785 62.2908 69.2913C62.378 69.2041 62.427 69.0859 62.427 68.9625C62.427 68.8392 62.378 68.721 62.2908 68.6338C62.2036 68.5466 62.0853 68.4976 61.962 68.4976Z" fill="#297CE2"/>
<path d="M26.1825 37.8076C26.1386 37.8506 26.1038 37.9019 26.08 37.9586C26.0562 38.0152 26.0439 38.0761 26.0439 38.1375C26.0439 38.1989 26.0562 38.2598 26.08 38.3164C26.1038 38.3731 26.1386 38.4244 26.1825 38.4674C27.7825 40.0674 29.8881 40.8725 32.0001 40.8725C34.1814 40.8734 36.2738 40.0084 37.8177 38.4674C37.8616 38.4244 37.8964 38.3731 37.9202 38.3164C37.944 38.2598 37.9563 38.1989 37.9563 38.1375C37.9563 38.0761 37.944 38.0152 37.9202 37.9586C37.8964 37.9019 37.8616 37.8506 37.8177 37.8076C37.7747 37.7636 37.7233 37.7287 37.6666 37.7048C37.6099 37.681 37.549 37.6687 37.4875 37.6687C37.4259 37.6687 37.365 37.681 37.3083 37.7048C37.2516 37.7287 37.2002 37.7636 37.1572 37.8076C34.3175 40.6479 29.6897 40.6479 26.85 37.8076C26.7593 37.7233 26.6401 37.6764 26.5163 37.6764C26.3924 37.6764 26.2732 37.7233 26.1825 37.8076Z" fill="#297CE2"/>
<path d="M27.9752 36.0125C27.9314 36.0555 27.8965 36.1069 27.8727 36.1635C27.8489 36.2202 27.8367 36.281 27.8367 36.3425C27.8367 36.4039 27.8489 36.4647 27.8727 36.5214C27.8965 36.578 27.9314 36.6294 27.9752 36.6724C29.0901 37.7873 30.5455 38.3402 32.0008 38.3402C33.4562 38.3402 34.9103 37.7873 36.0252 36.6826C36.069 36.6396 36.1039 36.5883 36.1277 36.5316C36.1515 36.475 36.1637 36.4141 36.1637 36.3527C36.1637 36.2912 36.1515 36.2304 36.1277 36.1738C36.1039 36.1171 36.069 36.0658 36.0252 36.0228C35.9821 35.9789 35.9308 35.9441 35.8742 35.9203C35.8175 35.8965 35.7567 35.8842 35.6952 35.8842C35.6338 35.8842 35.573 35.8965 35.5163 35.9203C35.4597 35.9441 35.4083 35.9789 35.3653 36.0228C33.5125 37.8749 30.4975 37.8749 28.6453 36.0228C28.556 35.9359 28.4369 35.8865 28.3123 35.8846C28.1878 35.8827 28.0672 35.9284 27.9752 36.0125ZM34.23 34.8874C34.2738 34.8444 34.3087 34.7931 34.3325 34.7364C34.3563 34.6798 34.3685 34.6189 34.3685 34.5575C34.3685 34.496 34.3563 34.4352 34.3325 34.3786C34.3087 34.3219 34.2738 34.2706 34.23 34.2276C34.1869 34.1837 34.1356 34.1489 34.079 34.1251C34.0223 34.1013 33.9615 34.089 33.9 34.089C33.8386 34.089 33.7778 34.1013 33.7211 34.1251C33.6645 34.1489 33.6131 34.1837 33.5701 34.2276C33.1541 34.642 32.5909 34.8746 32.0037 34.8746C31.4166 34.8746 30.8533 34.642 30.4373 34.2276C30.3943 34.1838 30.343 34.149 30.2864 34.1253C30.2298 34.1016 30.1691 34.0893 30.1077 34.0893C30.0464 34.0893 29.9856 34.1016 29.929 34.1253C29.8724 34.149 29.8211 34.1838 29.7781 34.2276C29.7343 34.2706 29.6994 34.3219 29.6756 34.3786C29.6518 34.4352 29.6396 34.496 29.6396 34.5575C29.6396 34.6189 29.6518 34.6798 29.6756 34.7364C29.6994 34.7931 29.7343 34.8444 29.7781 34.8874C30.0708 35.1802 30.4185 35.4122 30.8011 35.5701C31.1838 35.7281 31.5939 35.8088 32.0079 35.8077C32.8412 35.8069 33.6402 35.476 34.23 34.8874ZM57.6776 36.2077C57.6775 36.7568 57.8677 37.2889 58.216 37.7133C58.5642 38.1378 59.0489 38.4283 59.5874 38.5354V53.9927C59.5874 54.2551 59.3749 54.4573 59.1228 54.4573H57.085C57.0239 54.4573 56.9634 54.4692 56.9069 54.4926C56.8505 54.516 56.7992 54.5502 56.756 54.5935C56.7129 54.6367 56.6787 54.688 56.6554 54.7445C56.6321 54.801 56.6202 54.8615 56.6204 54.9226C56.6204 55.185 56.8328 55.3873 57.085 55.3873H59.1228C59.8972 55.3873 60.5276 54.7575 60.5276 53.9825V38.5348C61.6124 38.312 62.438 37.3521 62.438 36.2071C62.4368 35.5776 62.1862 34.9743 61.741 34.5292C61.2958 34.0842 60.6924 33.8337 60.0629 33.8327C58.7554 33.8327 57.6776 34.8983 57.6776 36.2077ZM60.052 34.7729C60.4324 34.7735 60.7971 34.9249 61.0661 35.1938C61.3352 35.4628 61.4867 35.8273 61.4876 36.2077C61.4866 36.5562 61.3595 36.8926 61.1297 37.1546C60.9 37.4167 60.5831 37.5866 60.2376 37.633C60.18 37.6029 60.1199 37.5927 60.052 37.5927C59.9842 37.5927 59.9279 37.6029 59.8677 37.633C59.5199 37.5902 59.1998 37.4216 58.9676 37.1591C58.7355 36.8966 58.6074 36.5582 58.6076 36.2077C58.6106 35.8263 58.7642 35.4616 59.0348 35.1929C59.3055 34.9241 59.6706 34.7732 60.052 34.7729ZM45.9253 43.3828H49.5797C49.6409 43.3829 49.7015 43.371 49.758 43.3477C49.8145 43.3244 49.8659 43.2901 49.9091 43.2469C49.9523 43.2036 49.9866 43.1523 50.0099 43.0957C50.0333 43.0392 50.0452 42.9786 50.045 42.9175C50.0451 42.8564 50.0331 42.796 50.0098 42.7396C49.9865 42.6832 49.9523 42.6319 49.9091 42.5888C49.8659 42.5456 49.8147 42.5114 49.7583 42.488C49.7019 42.4647 49.6414 42.4528 49.5804 42.4529H45.9253C45.8642 42.4527 45.8037 42.4646 45.7472 42.4879C45.6907 42.5111 45.6394 42.5454 45.5962 42.5885C45.5529 42.6317 45.5187 42.683 45.4953 42.7394C45.4719 42.7959 45.46 42.8564 45.46 42.9175C45.4504 43.1703 45.6629 43.3828 45.9253 43.3828ZM47.7474 65.3073C47.2418 65.3073 46.8348 65.7149 46.8348 66.2199C46.8353 66.339 46.8593 66.4568 46.9055 66.5666C46.9517 66.6764 47.0192 66.776 47.104 66.8596C47.1888 66.9432 47.2893 67.0093 47.3997 67.0539C47.5101 67.0985 47.6283 67.1209 47.7474 67.1197C48.253 67.1197 48.66 66.7121 48.66 66.2071C48.6597 66.0879 48.6358 65.97 48.5896 65.8602C48.5435 65.7503 48.4761 65.6507 48.3912 65.567C48.3064 65.4834 48.2058 65.4173 48.0953 65.3727C47.9848 65.3282 47.8666 65.3059 47.7474 65.3073ZM49.7653 55.3501H52.2376L53.7128 56.8253C53.8005 56.9124 53.9253 56.9597 54.0431 56.9597C54.1608 56.9597 54.2856 56.9124 54.3727 56.8253C54.4167 56.7823 54.4516 56.7309 54.4754 56.6742C54.4993 56.6175 54.5116 56.5566 54.5116 56.4951C54.5116 56.4336 54.4993 56.3727 54.4754 56.316C54.4516 56.2593 54.4167 56.2079 54.3727 56.1649L53.5682 55.3604H53.7538C54.0162 55.3604 54.2184 55.1479 54.2184 54.8951C54.2185 54.834 54.2065 54.7735 54.1832 54.717C54.1598 54.6606 54.1255 54.6093 54.0823 54.5661C54.0391 54.523 53.9878 54.4888 53.9313 54.4655C53.8748 54.4422 53.8143 54.4303 53.7532 54.4305H53.5682L54.3733 53.6253C54.4172 53.5823 54.452 53.531 54.4758 53.4743C54.4996 53.4177 54.5119 53.3569 54.5119 53.2954C54.5119 53.234 54.4996 53.1731 54.4758 53.1165C54.452 53.0599 54.4172 53.0085 54.3733 52.9655C54.3303 52.9216 54.279 52.8868 54.2223 52.863C54.1657 52.8392 54.1048 52.8269 54.0434 52.8269C53.982 52.8269 53.9211 52.8392 53.8645 52.863C53.8078 52.8868 53.7565 52.9216 53.7135 52.9655L52.2383 54.4401H49.766C49.7255 54.2893 49.6631 54.1453 49.581 54.0125L51.3263 52.2679H53.4108C53.6732 52.2679 53.876 52.0554 53.876 51.8026C53.8761 51.7415 53.8641 51.681 53.8408 51.6246C53.8174 51.5681 53.7831 51.5168 53.7399 51.4736C53.6967 51.4305 53.6454 51.3963 53.5889 51.373C53.5324 51.3497 53.4719 51.3378 53.4108 51.338H52.2658L52.3912 51.2125C52.435 51.1695 52.4698 51.1182 52.4935 51.0616C52.5172 51.0051 52.5295 50.9443 52.5295 50.8829C52.5295 50.8216 52.5172 50.7608 52.4935 50.7042C52.4698 50.6476 52.435 50.5963 52.3912 50.5533C52.3482 50.5094 52.2968 50.4744 52.2401 50.4506C52.1834 50.4267 52.1225 50.4145 52.061 50.4145C51.9995 50.4145 51.9386 50.4267 51.8819 50.4506C51.8252 50.4744 51.7738 50.5094 51.7308 50.5533L51.6085 50.6378V49.4922C51.6086 49.4311 51.5966 49.3706 51.5733 49.3142C51.5499 49.2577 51.5156 49.2064 51.4724 49.1632C51.4292 49.1201 51.3778 49.0859 51.3214 49.0626C51.2649 49.0393 51.2043 49.0274 51.1432 49.0276C51.0822 49.0275 51.0216 49.0395 50.9652 49.0628C50.9087 49.0862 50.8575 49.1205 50.8143 49.1637C50.7711 49.2069 50.7369 49.2583 50.7136 49.3147C50.6903 49.3712 50.6784 49.4318 50.6786 49.4929V51.578L48.9333 53.3226C48.7947 53.2455 48.6481 53.1834 48.4962 53.1377V50.6653L49.9708 49.1901C50.1564 49.0052 50.1564 48.7153 49.9708 48.5303C49.7852 48.3453 49.4959 48.3447 49.3116 48.5303L48.5058 49.3354V49.1498C48.5059 49.0888 48.4939 49.0283 48.4706 48.9719C48.4473 48.9155 48.4131 48.8642 48.3699 48.8211C48.3267 48.7779 48.2755 48.7437 48.2191 48.7204C48.1627 48.697 48.1022 48.6851 48.0412 48.6852C47.98 48.685 47.9194 48.6969 47.8629 48.7202C47.8064 48.7436 47.755 48.7778 47.7118 48.8211C47.6685 48.8643 47.6343 48.9157 47.611 48.9722C47.5876 49.0287 47.5757 49.0893 47.5759 49.1505V49.3354L46.7708 48.5303C46.5858 48.3447 46.2959 48.3447 46.1116 48.5303C45.9272 48.7159 45.926 49.0052 46.1116 49.1901L47.5861 50.6653V53.1377C47.4327 53.1802 47.2856 53.2426 47.1484 53.3233L45.4037 51.578V49.4929C45.4039 49.4317 45.392 49.3711 45.3687 49.3146C45.3453 49.2581 45.3111 49.2067 45.2678 49.1635C45.2246 49.1202 45.1732 49.086 45.1167 49.0626C45.0602 49.0393 44.9996 49.0274 44.9384 49.0276C44.8774 49.0275 44.8168 49.0395 44.7604 49.0628C44.7039 49.0862 44.6527 49.1205 44.6095 49.1637C44.5663 49.2069 44.5321 49.2583 44.5088 49.3147C44.4855 49.3712 44.4736 49.4318 44.4738 49.4929V50.6378L44.3484 50.513C44.3054 50.4692 44.2541 50.4345 44.1975 50.4107C44.1409 50.387 44.0801 50.3748 44.0188 50.3748C43.9574 50.3748 43.8967 50.387 43.8401 50.4107C43.7835 50.4345 43.7322 50.4692 43.6892 50.513C43.6454 50.556 43.6106 50.6073 43.5869 50.6639C43.5632 50.7205 43.5509 50.7812 43.5509 50.8426C43.5509 50.904 43.5632 50.9647 43.5869 51.0213C43.6106 51.0779 43.6454 51.1292 43.6892 51.1722L43.8133 51.2976H42.6684C42.6073 51.2976 42.5468 51.3095 42.4903 51.3329C42.4339 51.3563 42.3826 51.3905 42.3394 51.4338C42.2962 51.477 42.262 51.5283 42.2387 51.5848C42.2155 51.6413 42.2036 51.7018 42.2037 51.7629C42.2037 52.0253 42.4162 52.2276 42.6684 52.2276H44.7535L46.4988 53.9729C46.4232 54.109 46.361 54.2522 46.3132 54.4004H43.8402L42.3656 52.9252C42.3226 52.8812 42.2712 52.8463 42.2145 52.8224C42.1578 52.7986 42.0969 52.7863 42.0354 52.7863C41.9739 52.7863 41.913 52.7986 41.8563 52.8224C41.7996 52.8463 41.7482 52.8812 41.7052 52.9252C41.6613 52.9682 41.6264 53.0195 41.6027 53.0762C41.5789 53.1328 41.5666 53.1937 41.5666 53.2551C41.5666 53.3165 41.5789 53.3774 41.6027 53.434C41.6264 53.4907 41.6613 53.542 41.7052 53.585L42.5103 54.3901H42.3253C42.2642 54.39 42.2037 54.402 42.1473 54.4254C42.0908 54.4488 42.0395 54.483 41.9964 54.5263C41.9532 54.5695 41.919 54.6208 41.8957 54.6773C41.8724 54.7338 41.8605 54.7943 41.8607 54.8554C41.8607 55.1076 42.0732 55.3201 42.3253 55.3201H42.5109L41.7052 56.1252C41.6613 56.1682 41.6264 56.2195 41.6027 56.2762C41.5789 56.3328 41.5666 56.3937 41.5666 56.4551C41.5666 56.5165 41.5789 56.5774 41.6027 56.634C41.6264 56.6907 41.6613 56.742 41.7052 56.785C41.7936 56.8711 41.912 56.9195 42.0354 56.9201C42.1587 56.9197 42.2771 56.8715 42.3656 56.7857L43.8402 55.3098H46.3132C46.3528 55.4653 46.4207 55.6106 46.4981 55.7476L44.7528 57.4929H42.6677C42.6067 57.4928 42.5462 57.5047 42.4898 57.5281C42.4334 57.5514 42.3822 57.5856 42.339 57.6288C42.2958 57.6719 42.2616 57.7232 42.2383 57.7796C42.215 57.836 42.203 57.8965 42.2031 57.9575C42.2031 58.2199 42.4156 58.4228 42.6677 58.4228H43.8133L43.6879 58.5476C43.644 58.5906 43.6092 58.6419 43.5854 58.6986C43.5616 58.7552 43.5493 58.8161 43.5493 58.8775C43.5493 58.9389 43.5616 58.9998 43.5854 59.0564C43.6092 59.1131 43.644 59.1644 43.6879 59.2074C43.7756 59.2951 43.9004 59.3425 44.0181 59.3425C44.1359 59.3425 44.2607 59.2951 44.3477 59.2081L44.4732 59.0826V60.2282C44.4733 60.3515 44.5223 60.4698 44.6096 60.5569C44.6528 60.6 44.7041 60.6343 44.7605 60.6576C44.8169 60.6809 44.8774 60.6929 44.9384 60.6929C44.9995 60.6928 45.06 60.6807 45.1164 60.6573C45.1727 60.6339 45.224 60.5997 45.2671 60.5564C45.3103 60.5132 45.3445 60.462 45.3678 60.4055C45.3911 60.3491 45.4031 60.2886 45.4031 60.2276V58.1425L47.1477 56.3978C47.2828 56.4746 47.428 56.5322 47.5855 56.5828V59.0551L46.1103 60.5303C45.9253 60.7153 45.9253 61.0052 46.1103 61.1901C46.2952 61.3751 46.5858 61.3751 46.7708 61.1901L47.5752 60.385V60.5706C47.5752 60.833 47.7877 61.0353 48.0405 61.0353C48.3029 61.0353 48.5052 60.8228 48.5052 60.57V60.385L49.3103 61.1901C49.3985 61.2763 49.5169 61.3245 49.6402 61.3245C49.7635 61.3245 49.8819 61.2763 49.9701 61.1901C50.014 61.1471 50.0488 61.0958 50.0726 61.0391C50.0964 60.9825 50.1087 60.9217 50.1087 60.8602C50.1087 60.7988 50.0964 60.7379 50.0726 60.6813C50.0488 60.6247 50.014 60.5733 49.9701 60.5303L48.4956 59.0551V56.5828C48.6504 56.5425 48.7957 56.4753 48.9327 56.3972L50.678 58.1425V60.2276C50.678 60.3509 50.727 60.4692 50.8142 60.5564C50.9013 60.6435 51.0196 60.6925 51.1429 60.6925C51.2662 60.6925 51.3845 60.6435 51.4717 60.5564C51.5589 60.4692 51.6079 60.3509 51.6079 60.2276V59.0833L51.7327 59.2081C51.8204 59.2957 51.9452 59.3431 52.0629 59.3431C52.1807 59.3431 52.3055 59.2957 52.3932 59.2087C52.4371 59.1657 52.4721 59.1143 52.4959 59.0576C52.5198 59.0009 52.532 58.94 52.532 58.8785C52.532 58.8169 52.5198 58.756 52.4959 58.6993C52.4721 58.6426 52.4371 58.5912 52.3932 58.5482L52.2677 58.4234H53.4133C53.6757 58.4234 53.878 58.2109 53.878 57.9581C53.878 57.897 53.8661 57.8365 53.8427 57.7801C53.8193 57.7236 53.7851 57.6723 53.7418 57.6292C53.6986 57.586 53.6473 57.5518 53.5908 57.5285C53.5343 57.5052 53.4738 57.4933 53.4127 57.4935H51.3282L49.5829 55.7482C49.6578 55.6509 49.7256 55.505 49.7653 55.3501ZM48.02 55.7578C47.9053 55.7583 47.7916 55.7361 47.6855 55.6924C47.5794 55.6487 47.483 55.5844 47.4019 55.5032C47.3208 55.4221 47.2565 55.3256 47.2129 55.2195C47.1693 55.1133 47.1471 54.9996 47.1477 54.8849C47.1477 54.4004 47.5356 54.0125 48.02 54.0125C48.5045 54.0125 48.893 54.4004 48.893 54.8849C48.9026 55.3674 48.5052 55.7578 48.02 55.7578ZM13.565 33.6074C13.5039 33.6072 13.4433 33.6192 13.3868 33.6425C13.3302 33.6658 13.2789 33.7001 13.2356 33.7433C13.1924 33.7866 13.1581 33.8379 13.1348 33.8944C13.1115 33.951 13.0996 34.0115 13.0997 34.0727V38.8324C12.5619 38.9409 12.0782 39.2319 11.7302 39.656C11.3822 40.0801 11.1914 40.6114 11.19 41.1601C11.1912 41.7894 11.4417 42.3927 11.8867 42.8377C12.3318 43.2827 12.935 43.5333 13.5644 43.5345C14.194 43.5336 14.7975 43.2832 15.2428 42.8382C15.6881 42.3931 15.9389 41.7896 15.94 41.1601C15.9402 40.6109 15.7498 40.0787 15.4015 39.6543C15.0531 39.2298 14.5683 38.9393 14.0296 38.8324V34.0727C14.0283 33.9498 13.979 33.8323 13.8921 33.7454C13.8053 33.6584 13.6879 33.6089 13.565 33.6074ZM14.9999 41.1626C14.999 41.5429 14.8476 41.9074 14.5787 42.1763C14.3098 42.4452 13.9453 42.5966 13.565 42.5975C13.1847 42.5966 12.8202 42.4452 12.5513 42.1763C12.2824 41.9074 12.131 41.5429 12.1301 41.1626C12.1326 40.7828 12.2846 40.4193 12.5532 40.1508C12.8217 39.8822 13.1852 39.7302 13.565 39.7277C13.9449 39.7299 14.3086 39.8818 14.5772 40.1504C14.8458 40.419 14.9977 40.7827 14.9999 41.1626ZM21.4978 12.6826H22.9903C23.2527 12.6826 23.4556 12.4701 23.4556 12.2173C23.4556 12.1562 23.4437 12.0957 23.4203 12.0393C23.3969 11.9828 23.3627 11.9315 23.3194 11.8884C23.2762 11.8452 23.2249 11.811 23.1684 11.7877C23.1119 11.7644 23.0514 11.7525 22.9903 11.7527H21.4978C21.4367 11.7525 21.3762 11.7644 21.3197 11.7877C21.2632 11.811 21.2119 11.8452 21.1687 11.8884C21.1254 11.9315 21.0911 11.9828 21.0678 12.0393C21.0444 12.0957 21.0324 12.1562 21.0325 12.2173C21.0325 12.4797 21.245 12.6826 21.4978 12.6826ZM10.685 12.6826H19.3352C19.5976 12.6826 19.8005 12.4701 19.8005 12.2173C19.8006 12.1562 19.7886 12.0957 19.7653 12.0393C19.7419 11.9828 19.7076 11.9315 19.6644 11.8884C19.6212 11.8452 19.5698 11.811 19.5134 11.7877C19.4569 11.7644 19.3963 11.7525 19.3352 11.7527H10.685C10.6239 11.7525 10.5634 11.7644 10.5069 11.7877C10.4504 11.811 10.3991 11.8452 10.3559 11.8884C10.3126 11.9315 10.2783 11.9828 10.255 12.0393C10.2316 12.0957 10.2196 12.1562 10.2197 12.2173C10.2197 12.4797 10.4245 12.6826 10.685 12.6826Z" fill="#297CE2"/>
<path d="M72.36 57.82C72.36 57.94 72.3533 58.1133 72.34 58.34C72.34 58.5533 72.3333 58.7867 72.32 59.04C72.3067 59.28 72.2933 59.5133 72.28 59.74C72.2667 59.9533 72.2533 60.1267 72.24 60.26L77.98 51.28H80.14V62H78.5V55.68C78.5 55.4667 78.5 55.1867 78.5 54.84C78.5133 54.4933 78.5267 54.1533 78.54 53.82C78.5533 53.4733 78.5667 53.2133 78.58 53.04L72.88 62H70.7V51.28H72.36V57.82ZM85.3116 51.28V55.74H91.1316V51.28H92.8916V62H91.1316V57.22H85.3116V62H83.5516V51.28H85.3116ZM103.686 52.76H100.186V62H98.4459V52.76H94.9859V51.28H103.686V52.76ZM109.742 51.08C110.662 51.08 111.449 51.28 112.102 51.68C112.769 52.08 113.276 52.6467 113.622 53.38C113.982 54.1 114.162 54.9467 114.162 55.92V56.98H106.822C106.849 58.1933 107.156 59.12 107.742 59.76C108.342 60.3867 109.176 60.7 110.242 60.7C110.922 60.7 111.522 60.64 112.042 60.52C112.576 60.3867 113.122 60.2 113.682 59.96V61.5C113.136 61.74 112.596 61.9133 112.062 62.02C111.529 62.14 110.896 62.2 110.162 62.2C109.149 62.2 108.249 61.9933 107.462 61.58C106.689 61.1667 106.082 60.5533 105.642 59.74C105.216 58.9133 105.002 57.9067 105.002 56.72C105.002 55.5467 105.196 54.54 105.582 53.7C105.982 52.86 106.536 52.2133 107.242 51.76C107.962 51.3067 108.796 51.08 109.742 51.08ZM109.722 52.52C108.882 52.52 108.216 52.7933 107.722 53.34C107.242 53.8733 106.956 54.62 106.862 55.58H112.322C112.322 54.9667 112.229 54.4333 112.042 53.98C111.856 53.5267 111.569 53.1733 111.182 52.92C110.809 52.6533 110.322 52.52 109.722 52.52ZM121.991 51.08C123.311 51.08 124.371 51.54 125.171 52.46C125.985 53.38 126.391 54.7667 126.391 56.62C126.391 57.8333 126.205 58.86 125.831 59.7C125.471 60.5267 124.958 61.1533 124.291 61.58C123.638 61.9933 122.865 62.2 121.971 62.2C121.425 62.2 120.938 62.1267 120.511 61.98C120.085 61.8333 119.718 61.6467 119.411 61.42C119.118 61.18 118.865 60.92 118.651 60.64H118.531C118.558 60.8667 118.585 61.1533 118.611 61.5C118.638 61.8467 118.651 62.1467 118.651 62.4V66.8H116.891V51.28H118.331L118.571 52.74H118.651C118.865 52.4333 119.118 52.1533 119.411 51.9C119.718 51.6467 120.078 51.4467 120.491 51.3C120.918 51.1533 121.418 51.08 121.991 51.08ZM121.671 52.56C120.951 52.56 120.371 52.7 119.931 52.98C119.491 53.2467 119.171 53.6533 118.971 54.2C118.771 54.7467 118.665 55.44 118.651 56.28V56.62C118.651 57.5 118.745 58.2467 118.931 58.86C119.118 59.4733 119.431 59.94 119.871 60.26C120.325 60.58 120.938 60.74 121.711 60.74C122.365 60.74 122.898 60.56 123.311 60.2C123.738 59.84 124.051 59.3533 124.251 58.74C124.465 58.1133 124.571 57.4 124.571 56.6C124.571 55.3733 124.331 54.3933 123.851 53.66C123.385 52.9267 122.658 52.56 121.671 52.56ZM130.956 51.28V55.74H136.776V51.28H138.536V62H136.776V57.22H130.956V62H129.196V51.28H130.956ZM146.07 51.08C146.99 51.08 147.777 51.28 148.43 51.68C149.097 52.08 149.604 52.6467 149.95 53.38C150.31 54.1 150.49 54.9467 150.49 55.92V56.98H143.15C143.177 58.1933 143.484 59.12 144.07 59.76C144.67 60.3867 145.504 60.7 146.57 60.7C147.25 60.7 147.85 60.64 148.37 60.52C148.904 60.3867 149.45 60.2 150.01 59.96V61.5C149.464 61.74 148.924 61.9133 148.39 62.02C147.857 62.14 147.224 62.2 146.49 62.2C145.477 62.2 144.577 61.9933 143.79 61.58C143.017 61.1667 142.41 60.5533 141.97 59.74C141.544 58.9133 141.33 57.9067 141.33 56.72C141.33 55.5467 141.524 54.54 141.91 53.7C142.31 52.86 142.864 52.2133 143.57 51.76C144.29 51.3067 145.124 51.08 146.07 51.08ZM146.05 52.52C145.21 52.52 144.544 52.7933 144.05 53.34C143.57 53.8733 143.284 54.62 143.19 55.58H148.65C148.65 54.9667 148.557 54.4333 148.37 53.98C148.184 53.5267 147.897 53.1733 147.51 52.92C147.137 52.6533 146.65 52.52 146.05 52.52ZM160.62 52.76H157.12V62H155.38V52.76H151.92V51.28H160.62V52.76ZM162.281 57V55.4375H169.781V57H162.281ZM184.231 51.28V62H182.651V55.16C182.651 54.88 182.658 54.5867 182.671 54.28C182.698 53.9733 182.725 53.6733 182.751 53.38H182.691L179.191 62H177.711L174.311 53.38H174.251C174.278 53.6733 174.291 53.9733 174.291 54.28C174.305 54.5867 174.311 54.9 174.311 55.22V62H172.731V51.28H175.071L178.451 59.9L181.891 51.28H184.231ZM191.713 51.1C193.02 51.1 193.986 51.3867 194.613 51.96C195.24 52.5333 195.553 53.4467 195.553 54.7V62H194.273L193.933 60.48H193.853C193.546 60.8667 193.226 61.1933 192.893 61.46C192.573 61.7133 192.2 61.9 191.773 62.02C191.36 62.14 190.853 62.2 190.253 62.2C189.613 62.2 189.033 62.0867 188.513 61.86C188.006 61.6333 187.606 61.2867 187.313 60.82C187.02 60.34 186.873 59.74 186.873 59.02C186.873 57.9533 187.293 57.1333 188.133 56.56C188.973 55.9733 190.266 55.6533 192.013 55.6L193.833 55.54V54.9C193.833 54.0067 193.64 53.3867 193.253 53.04C192.866 52.6933 192.32 52.52 191.613 52.52C191.053 52.52 190.52 52.6067 190.013 52.78C189.506 52.94 189.033 53.1267 188.593 53.34L188.053 52.02C188.52 51.7667 189.073 51.5533 189.713 51.38C190.353 51.1933 191.02 51.1 191.713 51.1ZM192.233 56.82C190.9 56.8733 189.973 57.0867 189.453 57.46C188.946 57.8333 188.693 58.36 188.693 59.04C188.693 59.64 188.873 60.08 189.233 60.36C189.606 60.64 190.08 60.78 190.653 60.78C191.56 60.78 192.313 60.5333 192.913 60.04C193.513 59.5333 193.813 58.76 193.813 57.72V56.76L192.233 56.82ZM205.404 51.28V52.76H200.624V62H198.864V51.28H205.404ZM211.576 51.1C212.883 51.1 213.85 51.3867 214.476 51.96C215.103 52.5333 215.416 53.4467 215.416 54.7V62H214.136L213.796 60.48H213.716C213.41 60.8667 213.09 61.1933 212.756 61.46C212.436 61.7133 212.063 61.9 211.636 62.02C211.223 62.14 210.716 62.2 210.116 62.2C209.476 62.2 208.896 62.0867 208.376 61.86C207.87 61.6333 207.47 61.2867 207.176 60.82C206.883 60.34 206.736 59.74 206.736 59.02C206.736 57.9533 207.156 57.1333 207.996 56.56C208.836 55.9733 210.13 55.6533 211.876 55.6L213.696 55.54V54.9C213.696 54.0067 213.503 53.3867 213.116 53.04C212.73 52.6933 212.183 52.52 211.476 52.52C210.916 52.52 210.383 52.6067 209.876 52.78C209.37 52.94 208.896 53.1267 208.456 53.34L207.916 52.02C208.383 51.7667 208.936 51.5533 209.576 51.38C210.216 51.1933 210.883 51.1 211.576 51.1ZM212.096 56.82C210.763 56.8733 209.836 57.0867 209.316 57.46C208.81 57.8333 208.556 58.36 208.556 59.04C208.556 59.64 208.736 60.08 209.096 60.36C209.47 60.64 209.943 60.78 210.516 60.78C211.423 60.78 212.176 60.5333 212.776 60.04C213.376 59.5333 213.676 58.76 213.676 57.72V56.76L212.096 56.82ZM221.547 51.08C222.361 51.08 223.067 51.1933 223.667 51.42C224.267 51.6333 224.734 51.9533 225.067 52.38C225.401 52.7933 225.567 53.3 225.567 53.9C225.567 54.5533 225.387 55.0733 225.027 55.46C224.667 55.8333 224.174 56.1067 223.547 56.28V56.36C223.974 56.48 224.367 56.6467 224.727 56.86C225.087 57.0733 225.374 57.3533 225.587 57.7C225.814 58.0467 225.927 58.4933 225.927 59.04C225.927 59.6267 225.761 60.16 225.427 60.64C225.107 61.12 224.607 61.5 223.927 61.78C223.261 62.06 222.401 62.2 221.347 62.2C220.841 62.2 220.354 62.1733 219.887 62.12C219.434 62.0667 219.021 61.9867 218.647 61.88C218.287 61.7733 217.967 61.6467 217.687 61.5V59.92C218.141 60.1333 218.674 60.3267 219.287 60.5C219.914 60.6733 220.594 60.76 221.327 60.76C221.861 60.76 222.341 60.7 222.767 60.58C223.207 60.46 223.554 60.2733 223.807 60.02C224.061 59.7533 224.187 59.3933 224.187 58.94C224.187 58.5267 224.074 58.1933 223.847 57.94C223.621 57.6733 223.281 57.4733 222.827 57.34C222.387 57.2067 221.821 57.14 221.127 57.14H219.687V55.7H220.847C221.767 55.7 222.501 55.58 223.047 55.34C223.607 55.0867 223.887 54.66 223.887 54.06C223.887 53.5533 223.674 53.1733 223.247 52.92C222.834 52.6667 222.234 52.54 221.447 52.54C220.861 52.54 220.341 52.6 219.887 52.72C219.447 52.8267 218.961 52.9933 218.427 53.22L217.807 51.82C218.381 51.5667 218.981 51.38 219.607 51.26C220.234 51.14 220.881 51.08 221.547 51.08ZM230.192 57.82C230.192 57.94 230.185 58.1133 230.172 58.34C230.172 58.5533 230.165 58.7867 230.152 59.04C230.139 59.28 230.125 59.5133 230.112 59.74C230.099 59.9533 230.085 60.1267 230.072 60.26L235.812 51.28H237.972V62H236.332V55.68C236.332 55.4667 236.332 55.1867 236.332 54.84C236.345 54.4933 236.359 54.1533 236.372 53.82C236.385 53.4733 236.399 53.2133 236.412 53.04L230.712 62H228.532V51.28H230.192V57.82ZM243.144 51.28V55.74H248.964V51.28H250.724V62H248.964V57.22H243.144V62H241.384V51.28H243.144Z" fill="#176AD0"/>
<path d="M102.547 26.0625C102.547 25.1354 102.474 24.4062 102.328 23.875C102.182 23.3438 101.854 22.9531 101.344 22.7031C100.833 22.4427 100.042 22.276 98.9688 22.2031C97.8958 22.1198 96.4271 22.0625 94.5625 22.0312L85.875 21.9062C83.7292 21.875 82.0052 21.7448 80.7031 21.5156C79.401 21.2865 78.4167 20.9271 77.75 20.4375C77.0833 19.9375 76.6354 19.2708 76.4062 18.4375C76.1875 17.6042 76.0781 16.5625 76.0781 15.3125C76.0781 13.9479 76.2292 12.8229 76.5312 11.9375C76.8438 11.0521 77.401 10.3594 78.2031 9.85938C79.0156 9.35938 80.1615 9.01042 81.6406 8.8125C83.1198 8.60417 85.0312 8.5 87.375 8.5H94.0625C96.1875 8.5 97.9583 8.56771 99.375 8.70312C100.792 8.83854 101.917 9.15104 102.75 9.64062C103.583 10.1302 104.177 10.8906 104.531 11.9219C104.896 12.9531 105.078 14.3698 105.078 16.1719H102.078C102.078 14.776 101.943 13.724 101.672 13.0156C101.411 12.2969 100.974 11.8073 100.359 11.5469C99.7552 11.2865 98.9375 11.1458 97.9062 11.125C96.875 11.1042 95.5938 11.0938 94.0625 11.0938H87.5312C85.6667 11.0938 84.1719 11.1302 83.0469 11.2031C81.9323 11.276 81.0885 11.4427 80.5156 11.7031C79.9427 11.9635 79.5573 12.3802 79.3594 12.9531C79.1719 13.526 79.0781 14.3125 79.0781 15.3125C79.0781 16.1562 79.1458 16.8333 79.2812 17.3438C79.4167 17.8542 79.7188 18.2448 80.1875 18.5156C80.6667 18.776 81.401 18.9583 82.3906 19.0625C83.3802 19.1562 84.7292 19.2135 86.4375 19.2344L95.75 19.3594C97.9375 19.3906 99.6823 19.5208 100.984 19.75C102.297 19.9688 103.276 20.3281 103.922 20.8281C104.578 21.3281 105.01 22.0052 105.219 22.8594C105.438 23.7031 105.547 24.7708 105.547 26.0625C105.547 27.4688 105.411 28.651 105.141 29.6094C104.88 30.5573 104.37 31.3177 103.609 31.8906C102.849 32.4635 101.75 32.875 100.312 33.125C98.875 33.375 96.9844 33.5 94.6406 33.5H87.3281C85.1927 33.5 83.401 33.4062 81.9531 33.2188C80.5052 33.0312 79.349 32.6562 78.4844 32.0938C77.6302 31.5208 77.0156 30.6719 76.6406 29.5469C76.2656 28.4219 76.0781 26.9219 76.0781 25.0469H79.0781C79.0781 26.5156 79.1979 27.651 79.4375 28.4531C79.6771 29.2552 80.0938 29.8333 80.6875 30.1875C81.2917 30.5312 82.1302 30.7396 83.2031 30.8125C84.2865 30.875 85.6615 30.9062 87.3281 30.9062H94.4844C96.349 30.9062 97.8229 30.849 98.9062 30.7344C99.9896 30.6094 100.792 30.3802 101.312 30.0469C101.833 29.7031 102.167 29.2135 102.312 28.5781C102.469 27.9427 102.547 27.1042 102.547 26.0625ZM110.531 33V9H113.531V19.5H135.531V9H138.531V33H135.531V22H113.531V33H110.531ZM155.203 33.5C152.859 33.5 150.932 33.3385 149.422 33.0156C147.911 32.7031 146.729 32.1198 145.875 31.2656C145.031 30.4115 144.438 29.1823 144.094 27.5781C143.76 25.974 143.594 23.8854 143.594 21.3125V20.6875C143.594 18.5625 143.698 16.7812 143.906 15.3438C144.115 13.8958 144.474 12.7188 144.984 11.8125C145.495 10.9062 146.188 10.2135 147.062 9.73438C147.948 9.25521 149.057 8.93229 150.391 8.76562C151.724 8.58854 153.328 8.5 155.203 8.5H161.5C163.375 8.5 164.979 8.58854 166.312 8.76562C167.646 8.93229 168.75 9.25521 169.625 9.73438C170.51 10.2135 171.208 10.9062 171.719 11.8125C172.229 12.7188 172.589 13.8958 172.797 15.3438C173.005 16.7812 173.109 18.5625 173.109 20.6875V21.3125C173.109 23.8854 172.938 25.974 172.594 27.5781C172.26 29.1823 171.667 30.4115 170.812 31.2656C169.969 32.1198 168.792 32.7031 167.281 33.0156C165.771 33.3385 163.844 33.5 161.5 33.5H155.203ZM155.203 30.9062H161.5C162.99 30.9062 164.245 30.8542 165.266 30.75C166.286 30.6458 167.115 30.4219 167.75 30.0781C168.396 29.7344 168.885 29.2135 169.219 28.5156C169.562 27.8177 169.797 26.8854 169.922 25.7188C170.047 24.5521 170.109 23.0833 170.109 21.3125V20.6875C170.109 18.8542 170.047 17.3438 169.922 16.1562C169.797 14.9688 169.562 14.0312 169.219 13.3438C168.885 12.6562 168.396 12.1562 167.75 11.8438C167.115 11.5208 166.286 11.3177 165.266 11.2344C164.245 11.1406 162.99 11.0938 161.5 11.0938H155.203C153.714 11.0938 152.458 11.1406 151.438 11.2344C150.417 11.3177 149.583 11.5208 148.938 11.8438C148.302 12.1562 147.812 12.6562 147.469 13.3438C147.135 14.0312 146.906 14.9688 146.781 16.1562C146.656 17.3438 146.594 18.8542 146.594 20.6875V21.3125C146.594 23.0833 146.656 24.5521 146.781 25.7188C146.906 26.8854 147.135 27.8177 147.469 28.5156C147.812 29.2135 148.302 29.7344 148.938 30.0781C149.583 30.4219 150.417 30.6458 151.438 30.75C152.458 30.8542 153.714 30.9062 155.203 30.9062ZM189.125 33L176.188 9H179.625L191.125 30.875L202.625 9H206.016L193.125 33H189.125ZM210.125 33V9H213.125V33H210.125ZM219.125 33V9H222.125V19.5H226.109L241.625 9H246.125L229.125 20.75L246.625 33H242.125L226.125 22H222.125V33H219.125Z" fill="black"/>
</g>
<defs>
<clipPath id="clip0_66_56">
<rect width="253" height="71" fill="white"/>
</clipPath>
</defs>
</svg>
