<svg width="49" height="50" viewBox="0 0 49 50" fill="none" xmlns="http://www.w3.org/2000/svg">
<path fill-rule="evenodd" clip-rule="evenodd" d="M6.0043 10.7586H9.73498L10.7478 14.3669C10.756 14.3955 10.7649 14.4239 10.7745 14.4521L13.3614 26.5924C13.3685 26.658 13.3792 26.7232 13.3935 26.7878L14.5159 32.0499V32.0574C14.6699 32.7649 15.0799 33.4007 15.6765 33.8573C16.273 34.3139 17.0195 34.5633 17.7896 34.5631H34.0645C34.5961 34.5631 35.1059 34.3651 35.4818 34.0127C35.8577 33.6603 36.0688 33.1822 36.0688 32.6838C36.0688 32.1854 35.8577 31.7074 35.4818 31.355C35.1059 31.0025 34.5961 30.8045 34.0645 30.8045H18.3374L17.6693 27.6723H36.3361H36.3628H36.3655C36.459 27.6723 36.7263 27.6799 36.9721 27.6423C37.4129 27.5724 37.8282 27.4009 38.1809 27.1433C38.5335 26.8857 38.8124 26.55 38.9925 26.1664C39.1368 25.8557 39.2089 25.4623 39.233 25.332L39.241 25.2969L41.3549 15.6197L41.3602 15.5947C41.4301 15.2342 41.4149 14.8638 41.3157 14.5095C41.2165 14.1551 41.0358 13.8254 40.7862 13.5436C40.5365 13.2618 40.2241 13.0346 39.8708 12.8782C39.5175 12.7217 39.132 12.6397 38.7413 12.6379H38.7359H14.4037L13.5138 9.4431C13.3469 8.74929 12.9331 8.1294 12.3406 7.68538C11.748 7.24136 11.012 6.99964 10.2534 7H6.0043C5.47273 7 4.96293 7.198 4.58705 7.55044C4.21117 7.90287 4 8.38088 4 8.8793C4 9.37773 4.21117 9.85574 4.58705 10.2082C4.96293 10.5606 5.47273 10.7586 6.0043 10.7586Z" fill="#418BE5"/>
<path fill-rule="evenodd" clip-rule="evenodd" d="M21.7183 39.0734C21.7183 38.3098 21.3948 37.5775 20.819 37.0376C20.2431 36.4977 19.4621 36.1943 18.6477 36.1943C17.8334 36.1943 17.0524 36.4977 16.4765 37.0376C15.9007 37.5775 15.5771 38.3098 15.5771 39.0734C15.6007 39.822 15.9344 40.5325 16.5074 41.0541C17.0805 41.5758 17.8477 41.8676 18.6464 41.8676C19.4451 41.8676 20.2124 41.5758 20.7854 41.0541C21.3584 40.5325 21.6948 39.822 21.7183 39.0734ZM35.0804 39.0734C35.0804 38.3098 34.7568 37.5775 34.181 37.0376C33.6051 36.4977 32.8241 36.1943 32.0098 36.1943C31.1954 36.1943 30.4144 36.4977 29.8385 37.0376C29.2627 37.5775 28.9392 38.3098 28.9392 39.0734C28.9627 39.822 29.2964 40.5325 29.8694 41.0541C30.4425 41.5758 31.2097 41.8676 32.0084 41.8676C32.8071 41.8676 33.5744 41.5758 34.1474 41.0541C34.7204 40.5325 35.0541 39.822 35.0777 39.0734H35.0804Z" fill="#2859C5"/>
<rect x="0.5" y="1" width="48" height="48" rx="11.5" stroke="#007AFF" stroke-opacity="0.15" stroke-linejoin="round"/>
</svg>
